<?xml version="1.0" standalone="no"?>
<!DOCTYPE svg PUBLIC "-//W3C//DTD SVG 20010904//EN"
 "http://www.w3.org/TR/2001/REC-SVG-20010904/DTD/svg10.dtd">
<svg version="1.0" xmlns="http://www.w3.org/2000/svg"
 width="69.840000pt" height="78.480000pt" viewBox="0 0 69.840000 78.480000"
 preserveAspectRatio="xMidYMid meet">
<metadata>
Created by potrace 1.16, written by Peter Selinger 2001-2019
</metadata>
<g transform="translate(0.000000,78.480000) scale(0.035815,-0.040246)"
fill="#000000" stroke="none">
<path d="M0 975 l0 -975 975 0 975 0 0 975 0 975 -975 0 -975 0 0 -975z m1089
296 l101 -175 -27 -45 c-15 -26 -34 -58 -42 -73 -14 -25 -22 -28 -68 -28 -29
0 -53 2 -53 4 0 2 18 36 40 74 36 61 39 73 28 91 -11 18 -16 12 -66 -75 l-54
-94 -54 0 c-49 0 -54 2 -45 18 5 9 41 72 80 140 59 104 69 127 60 144 -6 11
-12 18 -14 16 -2 -2 -44 -73 -93 -158 l-89 -155 -58 -3 -57 -3 26 43 c14 24
81 139 148 255 67 117 125 209 129 205 4 -4 53 -86 108 -181z m-187 -418 l58
-57 0 -106 0 -106 -53 -52 -53 -52 -221 2 -221 3 121 212 122 212 95 1 94 0
58 -57z m481 -93 c49 -83 84 -155 81 -164 -3 -8 3 -19 14 -25 18 -10 62 -70
62 -85 0 -10 -90 -7 -110 4 -13 7 -21 7 -25 0 -4 -6 -83 -10 -206 -10 l-199 0
0 137 0 138 77 77 78 78 71 0 71 0 86 -150z"/>
<path d="M703 798 c-13 -16 -123 -208 -123 -214 0 -2 53 -4 118 -4 111 0 120
1 140 23 18 19 22 35 22 93 0 90 -20 114 -97 114 -28 0 -55 -5 -60 -12z"/>
<path d="M1137 762 c-47 -47 -47 -48 -47 -115 l0 -67 91 0 c83 0 90 2 84 18
-21 50 -20 52 28 52 l46 0 -46 80 c-43 73 -50 80 -78 80 -23 0 -42 -11 -78
-48z"/>
</g>
</svg>
